<mxfile host="Electron" agent="Mozilla/5.0 (X11; Linux x86_64) AppleWebKit/537.36 (KHTML, like Gecko) draw.io/24.7.17 Chrome/128.0.6613.36 Electron/32.0.1 Safari/537.36" version="24.7.17">
  <diagram name="Page-1" id="rOZ1nbf3fq7kFRy8ewoV">
    <mxGraphModel dx="2875" dy="1225" grid="1" gridSize="10" guides="1" tooltips="1" connect="1" arrows="1" fold="1" page="1" pageScale="1" pageWidth="850" pageHeight="1100" math="0" shadow="0">
      <root>
        <mxCell id="0" />
        <mxCell id="1" parent="0" />
        <mxCell id="6OjcvlUsFw42OQyOWFL6-27" value="" style="group" vertex="1" connectable="0" parent="1">
          <mxGeometry x="690" y="300" width="280" height="350" as="geometry" />
        </mxCell>
        <mxCell id="6OjcvlUsFw42OQyOWFL6-11" value="" style="rounded=1;whiteSpace=wrap;html=1;dashed=1;arcSize=4;" vertex="1" parent="6OjcvlUsFw42OQyOWFL6-27">
          <mxGeometry width="280" height="350" as="geometry" />
        </mxCell>
        <mxCell id="iH2L8mBCul_JQ6tS9gb9-23" value="&lt;font style=&quot;font-size: 36px;&quot;&gt;S&lt;/font&gt;&lt;span style=&quot;font-size: 36px; background-color: initial;&quot;&gt;B-NetWork&lt;/span&gt;" style="rounded=0;whiteSpace=wrap;html=1;fillColor=#fff2cc;strokeColor=#d6b656;" parent="6OjcvlUsFw42OQyOWFL6-27" vertex="1">
          <mxGeometry x="15" y="270" width="250" height="60" as="geometry" />
        </mxCell>
        <mxCell id="iH2L8mBCul_JQ6tS9gb9-25" style="edgeStyle=orthogonalEdgeStyle;rounded=0;orthogonalLoop=1;jettySize=auto;html=1;" parent="6OjcvlUsFw42OQyOWFL6-27" source="iH2L8mBCul_JQ6tS9gb9-24" target="iH2L8mBCul_JQ6tS9gb9-23" edge="1">
          <mxGeometry relative="1" as="geometry" />
        </mxCell>
        <mxCell id="iH2L8mBCul_JQ6tS9gb9-24" value="&lt;font style=&quot;font-size: 36px;&quot;&gt;NetWork&lt;/font&gt;&lt;div&gt;&lt;font style=&quot;font-size: 36px;&quot;&gt;Core&lt;/font&gt;&lt;/div&gt;" style="rounded=0;whiteSpace=wrap;html=1;fillColor=#e1d5e7;strokeColor=#9673a6;" parent="6OjcvlUsFw42OQyOWFL6-27" vertex="1">
          <mxGeometry x="15" y="20" width="250" height="210" as="geometry" />
        </mxCell>
        <mxCell id="6OjcvlUsFw42OQyOWFL6-10" value="" style="rounded=1;whiteSpace=wrap;html=1;dashed=1;" vertex="1" parent="1">
          <mxGeometry x="-300" y="450" width="330" height="200" as="geometry" />
        </mxCell>
        <mxCell id="iH2L8mBCul_JQ6tS9gb9-2" value="&lt;font style=&quot;font-size: 36px;&quot;&gt;ClientBack-Manager&lt;/font&gt;" style="rounded=0;whiteSpace=wrap;html=1;fillColor=#ffe6cc;strokeColor=#d79b00;" parent="1" vertex="1">
          <mxGeometry x="-285" y="670" width="820" height="60" as="geometry" />
        </mxCell>
        <mxCell id="iH2L8mBCul_JQ6tS9gb9-3" value="&lt;font style=&quot;font-size: 36px;&quot;&gt;CB-DB&lt;/font&gt;" style="rounded=0;whiteSpace=wrap;html=1;fillColor=#fff2cc;strokeColor=#d6b656;" parent="1" vertex="1">
          <mxGeometry x="45" y="570" width="210" height="60" as="geometry" />
        </mxCell>
        <mxCell id="iH2L8mBCul_JQ6tS9gb9-4" value="&lt;font style=&quot;font-size: 36px;&quot;&gt;CB-NetWork&lt;/font&gt;" style="rounded=0;whiteSpace=wrap;html=1;fillColor=#fff2cc;strokeColor=#d6b656;" parent="1" vertex="1">
          <mxGeometry x="285" y="570" width="250" height="60" as="geometry" />
        </mxCell>
        <mxCell id="iH2L8mBCul_JQ6tS9gb9-5" value="&lt;font style=&quot;font-size: 36px;&quot;&gt;Front-BK&lt;/font&gt;" style="rounded=0;whiteSpace=wrap;html=1;fillColor=#dae8fc;strokeColor=#6c8ebf;" parent="1" vertex="1">
          <mxGeometry x="-195" y="570" width="210" height="60" as="geometry" />
        </mxCell>
        <mxCell id="iH2L8mBCul_JQ6tS9gb9-6" value="&lt;font style=&quot;font-size: 36px;&quot;&gt;NetWork&lt;/font&gt;&lt;div&gt;&lt;font style=&quot;font-size: 36px;&quot;&gt;Core&lt;/font&gt;&lt;/div&gt;" style="rounded=0;whiteSpace=wrap;html=1;fillColor=#e1d5e7;strokeColor=#9673a6;" parent="1" vertex="1">
          <mxGeometry x="285" y="320" width="250" height="210" as="geometry" />
        </mxCell>
        <mxCell id="iH2L8mBCul_JQ6tS9gb9-7" value="" style="shape=corner;whiteSpace=wrap;html=1;direction=south;dx=110;dy=210;fillColor=#d5e8d4;strokeColor=#82b366;" parent="1" vertex="1">
          <mxGeometry x="-285" y="320" width="540" height="210" as="geometry" />
        </mxCell>
        <mxCell id="iH2L8mBCul_JQ6tS9gb9-8" value="&lt;span style=&quot;font-size: 36px;&quot;&gt;Front-DB&lt;/span&gt;" style="rounded=0;whiteSpace=wrap;html=1;fillColor=#dae8fc;strokeColor=#6c8ebf;" parent="1" vertex="1">
          <mxGeometry x="-195" y="470" width="210" height="60" as="geometry" />
        </mxCell>
        <mxCell id="iH2L8mBCul_JQ6tS9gb9-9" value="&lt;font style=&quot;font-size: 36px;&quot;&gt;DB&lt;/font&gt;" style="text;html=1;align=center;verticalAlign=middle;whiteSpace=wrap;rounded=0;" parent="1" vertex="1">
          <mxGeometry x="75" y="380" width="140" height="50" as="geometry" />
        </mxCell>
        <mxCell id="iH2L8mBCul_JQ6tS9gb9-10" value="&lt;font style=&quot;font-size: 36px;&quot;&gt;UI&lt;/font&gt;" style="rounded=0;whiteSpace=wrap;html=1;fillColor=#f8cecc;strokeColor=#b85450;" parent="1" vertex="1">
          <mxGeometry x="-285" y="470" width="70" height="160" as="geometry" />
        </mxCell>
        <mxCell id="iH2L8mBCul_JQ6tS9gb9-11" value="" style="fontColor=#0066CC;verticalAlign=top;verticalLabelPosition=bottom;labelPosition=center;align=center;html=1;outlineConnect=0;fillColor=#CCCCCC;strokeColor=#6881B3;gradientColor=none;gradientDirection=north;strokeWidth=2;shape=mxgraph.networks.users;" parent="1" vertex="1">
          <mxGeometry x="-425" y="500" width="90" height="100" as="geometry" />
        </mxCell>
        <mxCell id="iH2L8mBCul_JQ6tS9gb9-12" value="" style="endArrow=classic;html=1;rounded=0;exitX=1;exitY=0.5;exitDx=0;exitDy=0;exitPerimeter=0;entryX=0;entryY=0.5;entryDx=0;entryDy=0;" parent="1" source="iH2L8mBCul_JQ6tS9gb9-11" target="iH2L8mBCul_JQ6tS9gb9-10" edge="1">
          <mxGeometry width="50" height="50" relative="1" as="geometry">
            <mxPoint x="-345" y="500" as="sourcePoint" />
            <mxPoint x="-274.28932188134524" y="500" as="targetPoint" />
          </mxGeometry>
        </mxCell>
        <mxCell id="iH2L8mBCul_JQ6tS9gb9-13" value="" style="endArrow=classic;html=1;rounded=0;exitX=0.517;exitY=0.638;exitDx=0;exitDy=0;exitPerimeter=0;entryX=0.5;entryY=0;entryDx=0;entryDy=0;" parent="1" source="iH2L8mBCul_JQ6tS9gb9-7" target="iH2L8mBCul_JQ6tS9gb9-8" edge="1">
          <mxGeometry width="50" height="50" relative="1" as="geometry">
            <mxPoint x="-325" y="510" as="sourcePoint" />
            <mxPoint x="-275" y="510" as="targetPoint" />
          </mxGeometry>
        </mxCell>
        <mxCell id="iH2L8mBCul_JQ6tS9gb9-14" value="" style="endArrow=classic;html=1;rounded=0;exitX=0.5;exitY=1;exitDx=0;exitDy=0;entryX=0.5;entryY=0;entryDx=0;entryDy=0;" parent="1" source="iH2L8mBCul_JQ6tS9gb9-8" target="iH2L8mBCul_JQ6tS9gb9-5" edge="1">
          <mxGeometry width="50" height="50" relative="1" as="geometry">
            <mxPoint x="-80" y="439" as="sourcePoint" />
            <mxPoint x="-80" y="480" as="targetPoint" />
          </mxGeometry>
        </mxCell>
        <mxCell id="iH2L8mBCul_JQ6tS9gb9-15" value="" style="endArrow=classic;html=1;rounded=0;exitX=0.238;exitY=-0.048;exitDx=0;exitDy=0;entryX=0.5;entryY=1;entryDx=0;entryDy=0;exitPerimeter=0;" parent="1" source="iH2L8mBCul_JQ6tS9gb9-2" target="iH2L8mBCul_JQ6tS9gb9-5" edge="1">
          <mxGeometry width="50" height="50" relative="1" as="geometry">
            <mxPoint x="-80" y="580" as="sourcePoint" />
            <mxPoint x="-80" y="540" as="targetPoint" />
          </mxGeometry>
        </mxCell>
        <mxCell id="iH2L8mBCul_JQ6tS9gb9-16" value="" style="endArrow=classic;html=1;rounded=0;exitX=0;exitY=0;exitDx=210;exitDy=105;exitPerimeter=0;" parent="1" source="iH2L8mBCul_JQ6tS9gb9-7" target="iH2L8mBCul_JQ6tS9gb9-3" edge="1">
          <mxGeometry width="50" height="50" relative="1" as="geometry">
            <mxPoint x="-80" y="540" as="sourcePoint" />
            <mxPoint x="-80" y="580" as="targetPoint" />
          </mxGeometry>
        </mxCell>
        <mxCell id="iH2L8mBCul_JQ6tS9gb9-17" value="" style="endArrow=classic;html=1;rounded=0;exitX=0.5;exitY=1;exitDx=0;exitDy=0;entryX=0.531;entryY=-0.001;entryDx=0;entryDy=0;entryPerimeter=0;" parent="1" source="iH2L8mBCul_JQ6tS9gb9-3" target="iH2L8mBCul_JQ6tS9gb9-2" edge="1">
          <mxGeometry width="50" height="50" relative="1" as="geometry">
            <mxPoint x="160" y="540" as="sourcePoint" />
            <mxPoint x="160" y="580" as="targetPoint" />
          </mxGeometry>
        </mxCell>
        <mxCell id="iH2L8mBCul_JQ6tS9gb9-18" value="" style="endArrow=classic;html=1;rounded=0;exitX=0.5;exitY=1;exitDx=0;exitDy=0;entryX=0.847;entryY=-0.009;entryDx=0;entryDy=0;entryPerimeter=0;" parent="1" source="iH2L8mBCul_JQ6tS9gb9-4" target="iH2L8mBCul_JQ6tS9gb9-2" edge="1">
          <mxGeometry width="50" height="50" relative="1" as="geometry">
            <mxPoint x="160" y="640" as="sourcePoint" />
            <mxPoint x="135" y="680" as="targetPoint" />
          </mxGeometry>
        </mxCell>
        <mxCell id="iH2L8mBCul_JQ6tS9gb9-19" value="" style="endArrow=classic;html=1;rounded=0;exitX=0.5;exitY=1;exitDx=0;exitDy=0;" parent="1" source="iH2L8mBCul_JQ6tS9gb9-6" target="iH2L8mBCul_JQ6tS9gb9-4" edge="1">
          <mxGeometry width="50" height="50" relative="1" as="geometry">
            <mxPoint x="420" y="640" as="sourcePoint" />
            <mxPoint x="340" y="680" as="targetPoint" />
          </mxGeometry>
        </mxCell>
        <mxCell id="iH2L8mBCul_JQ6tS9gb9-20" value="" style="endArrow=classic;html=1;rounded=0;entryX=1;entryY=0.5;entryDx=0;entryDy=0;exitX=0;exitY=0.5;exitDx=0;exitDy=0;edgeStyle=elbowEdgeStyle;" parent="1" target="iH2L8mBCul_JQ6tS9gb9-10" edge="1" source="iH2L8mBCul_JQ6tS9gb9-5">
          <mxGeometry width="50" height="50" relative="1" as="geometry">
            <mxPoint x="-285" y="710" as="sourcePoint" />
            <mxPoint x="-295" y="570" as="targetPoint" />
          </mxGeometry>
        </mxCell>
        <mxCell id="iH2L8mBCul_JQ6tS9gb9-31" value="" style="html=1;shadow=0;dashed=0;align=center;verticalAlign=middle;shape=mxgraph.arrows2.jumpInArrow;dy=15;dx=38;arrowHead=55;rotation=45;" parent="1" vertex="1">
          <mxGeometry x="575" y="340" width="100" height="100" as="geometry" />
        </mxCell>
        <mxCell id="iH2L8mBCul_JQ6tS9gb9-32" value="" style="html=1;shadow=0;dashed=0;align=center;verticalAlign=middle;shape=mxgraph.arrows2.jumpInArrow;dy=15;dx=38;arrowHead=55;rotation=-138;" parent="1" vertex="1">
          <mxGeometry x="555" y="390" width="100" height="100" as="geometry" />
        </mxCell>
        <mxCell id="iH2L8mBCul_JQ6tS9gb9-33" value="&lt;font style=&quot;font-size: 36px;&quot;&gt;TCP&lt;/font&gt;" style="text;html=1;align=center;verticalAlign=middle;whiteSpace=wrap;rounded=0;" parent="1" vertex="1">
          <mxGeometry x="585" y="300" width="60" height="30" as="geometry" />
        </mxCell>
        <mxCell id="iH2L8mBCul_JQ6tS9gb9-21" value="&lt;font style=&quot;font-size: 36px;&quot;&gt;ServerBack-Manager&lt;/font&gt;" style="rounded=0;whiteSpace=wrap;html=1;fillColor=#ffe6cc;strokeColor=#d79b00;" parent="1" vertex="1">
          <mxGeometry x="707.5" y="670" width="845" height="60" as="geometry" />
        </mxCell>
        <mxCell id="DuQizmAz_EA65Bhm9_b5-6" value="" style="endArrow=classic;html=1;rounded=0;exitX=0.5;exitY=1;exitDx=0;exitDy=0;entryX=0.254;entryY=-0.01;entryDx=0;entryDy=0;entryPerimeter=0;" parent="1" source="iH2L8mBCul_JQ6tS9gb9-23" target="iH2L8mBCul_JQ6tS9gb9-21" edge="1">
          <mxGeometry width="50" height="50" relative="1" as="geometry">
            <mxPoint x="805" y="670" as="sourcePoint" />
            <mxPoint x="855" y="620" as="targetPoint" />
          </mxGeometry>
        </mxCell>
        <mxCell id="6OjcvlUsFw42OQyOWFL6-28" value="" style="group" vertex="1" connectable="0" parent="1">
          <mxGeometry x="990" y="300" width="280" height="350" as="geometry" />
        </mxCell>
        <mxCell id="6OjcvlUsFw42OQyOWFL6-29" value="" style="rounded=1;whiteSpace=wrap;html=1;dashed=1;arcSize=4;" vertex="1" parent="6OjcvlUsFw42OQyOWFL6-28">
          <mxGeometry width="280" height="350" as="geometry" />
        </mxCell>
        <mxCell id="6OjcvlUsFw42OQyOWFL6-30" value="&lt;font style=&quot;font-size: 36px;&quot;&gt;S&lt;/font&gt;&lt;span style=&quot;font-size: 36px; background-color: initial;&quot;&gt;B-NetWork&lt;/span&gt;" style="rounded=0;whiteSpace=wrap;html=1;fillColor=#fff2cc;strokeColor=#d6b656;" vertex="1" parent="6OjcvlUsFw42OQyOWFL6-28">
          <mxGeometry x="15" y="270" width="250" height="60" as="geometry" />
        </mxCell>
        <mxCell id="6OjcvlUsFw42OQyOWFL6-31" style="edgeStyle=orthogonalEdgeStyle;rounded=0;orthogonalLoop=1;jettySize=auto;html=1;" edge="1" parent="6OjcvlUsFw42OQyOWFL6-28" source="6OjcvlUsFw42OQyOWFL6-32" target="6OjcvlUsFw42OQyOWFL6-30">
          <mxGeometry relative="1" as="geometry" />
        </mxCell>
        <mxCell id="6OjcvlUsFw42OQyOWFL6-32" value="&lt;font style=&quot;font-size: 36px;&quot;&gt;NetWork&lt;/font&gt;&lt;div&gt;&lt;font style=&quot;font-size: 36px;&quot;&gt;Core&lt;/font&gt;&lt;/div&gt;" style="rounded=0;whiteSpace=wrap;html=1;fillColor=#e1d5e7;strokeColor=#9673a6;" vertex="1" parent="6OjcvlUsFw42OQyOWFL6-28">
          <mxGeometry x="15" y="20" width="250" height="210" as="geometry" />
        </mxCell>
        <mxCell id="6OjcvlUsFw42OQyOWFL6-33" value="" style="endArrow=classic;html=1;rounded=0;exitX=0.5;exitY=1;exitDx=0;exitDy=0;entryX=0.5;entryY=0;entryDx=0;entryDy=0;" edge="1" parent="1" source="6OjcvlUsFw42OQyOWFL6-30" target="iH2L8mBCul_JQ6tS9gb9-21">
          <mxGeometry width="50" height="50" relative="1" as="geometry">
            <mxPoint x="840" y="640" as="sourcePoint" />
            <mxPoint x="914" y="679" as="targetPoint" />
          </mxGeometry>
        </mxCell>
        <mxCell id="6OjcvlUsFw42OQyOWFL6-34" value="&lt;font style=&quot;font-size: 72px;&quot;&gt;....&lt;/font&gt;" style="text;html=1;align=center;verticalAlign=middle;whiteSpace=wrap;rounded=0;" vertex="1" parent="1">
          <mxGeometry x="1340" y="470" width="190" height="60" as="geometry" />
        </mxCell>
      </root>
    </mxGraphModel>
  </diagram>
</mxfile>
